#!OML:ASF H:\Dans Jumps\Project 1\Capture day 1\Session 1\subject.ASF
:FULLY-SPECIFIED
:DEGREES
181
root 0.598665 17.4619 -14.1052 4.38385 -0.268639 -1.58461
lowerback -1.76971 -0.719353 -0.232284
upperback 2.27303 -1.01353 2.0098
thorax 3.37006 -0.53853 2.15155
lowerneck -14.1259 0.600928 -1.69064
upperneck 28.7912 1.35926 -0.14375
head 11.7364 0.40468 0.428652
rclavicle -1.18774e-014 2.74323e-014
rhumerus -20.6347 -13.1663 -82.0513
rradius 26.8103
rwrist 28.5948
rhand -18.3968 -27.3273
rfingers 7.12502
rthumb 7.88736 -57.1601
lclavicle -1.18774e-014 2.74323e-014
lhumerus -19.6845 0.0634714 87.5082
lradius 21.2412
lwrist 5.97436
lhand -24.6001 -1.8702
lfingers 7.12502
lthumb 1.89781 28.1011
rfemur -11.9447 -2.65485 20.0317
rtibia 23.8796
rfoot -14.9175 -4.18296
rtoes 9.69485
lfemur -12.0095 8.30101 -18.7856
ltibia 22.1014
lfoot -12.9336 3.8939
ltoes -1.61623
182
root 0.597446 17.4623 -14.1078 4.39464 -0.265182 -1.58378
lowerback -1.75932 -0.716367 -0.236459
upperback 2.27361 -1.00928 2.00873
thorax 3.36467 -0.536477 2.15312
lowerneck -14.1157 0.597428 -1.69976
upperneck 28.785 1.35093 -0.125642
head 11.7317 0.402363 0.435688
rclavicle 1.44119e-015 1.19271e-014
rhumerus -20.5524 -12.9834 -82.1193
rradius 26.9044
rwrist 28.458
rhand -18.42 -27.3384
rfingers 7.12502
rthumb 7.86494 -57.1721
lclavicle 1.44119e-015 1.19271e-014
lhumerus -19.6232 0.000226188 87.5172
lradius 21.2983
lwrist 6.01977
lhand -24.6456 -1.92492
lfingers 7.12502
lthumb 1.85382 28.0468
rfemur -11.9679 -2.6579 20.0362
rtibia 23.8825
rfoot -14.9085 -4.18131
rtoes 9.68037
lfemur -12.0322 8.29795 -18.7849
ltibia 22.1029
lfoot -12.9259 3.88976
ltoes -1.61064
183
root 0.596255 17.4628 -14.1103 4.4063 -0.264386 -1.58349
lowerback -1.75107 -0.712635 -0.24003
upperback 2.27425 -1.00408 2.00786
thorax 3.36051 -0.533947 2.15456
lowerneck -14.1091 0.594088 -1.70834
upperneck 28.7845 1.34314 -0.108497
head 11.73 0.400151 0.442399
rclavicle -2.83268e-015 -9.93923e-015
rhumerus -20.4659 -12.8123 -82.1847
rradius 26.9926
rwrist 28.332
rhand -18.4343 -27.3595
rfingers 7.12502
rthumb 7.85116 -57.1937
lclavicle -2.83268e-015 -9.93923e-015
lhumerus -19.5599 -0.0709416 87.526
lradius 21.3544
lwrist 6.07403
lhand -24.6821 -1.99304
lfingers 7.12502
lthumb 1.81857 27.979
rfemur -11.9919 -2.65896 20.0411
rtibia 23.8858
rfoot -14.9013 -4.17887
rtoes 9.66663
lfemur -12.0563 8.2982 -18.7839
ltibia 22.1053
lfoot -12.9183 3.88469
ltoes -1.60541
184
root 0.595098 17.4633 -14.1128 4.41896 -0.267082 -1.58496
lowerback -1.74376 -0.708469 -0.241691
upperback 2.27442 -0.998396 2.00773
thorax 3.35635 -0.531131 2.15571
lowerneck -14.1046 0.591633 -1.71645
upperneck 28.7886 1.33731 -0.0937283
head 11.7305 0.398509 0.448455
rclavicle 3.32964e-015 7.95139e-016
rhumerus -20.3783 -12.652 -82.2473
rradius 27.0792
rwrist 28.2183
rhand -18.4523 -27.3758
rfingers 7.12502
rthumb 7.83378 -57.2106
lclavicle 3.32964e-015 7.95139e-016
lhumerus -19.4981 -0.149738 87.5347
lradius 21.4126
lwrist 6.14208
lhand -24.709 -2.07048
lfingers 7.12502
lthumb 1.79259 27.9017
rfemur -12.0178 -2.65705 20.0482
rtibia 23.8906
rfoot -14.8954 -4.17633
rtoes 9.65269
lfemur -12.0827 8.30314 -18.7813
ltibia 22.1104
lfoot -12.9116 3.87893
ltoes -1.60323
185
root 0.593987 17.4635 -14.1154 4.43101 -0.27374 -1.58686
lowerback -1.73581 -0.703687 -0.24126
upperback 2.27634 -0.991949 2.00659
thorax 3.35355 -0.527887 2.15468
lowerneck -14.1086 0.590527 -1.72191
upperneck 28.7979 1.33359 -0.0810044
head 11.7348 0.397755 0.453665
rclavicle 1.71452e-014 -2.74323e-014
rhumerus -20.2859 -12.5013 -82.3105
rradius 27.166
rwrist 28.1041
rhand -18.4628 -27.4026
rfingers 7.12502
rthumb 7.8237 -57.2379
lclavicle 1.71452e-014 -2.74323e-014
lhumerus -19.4336 -0.234481 87.541
lradius 21.4737
lwrist 6.21906
lhand -24.724 -2.12947
lfingers 7.12502
lthumb 1.7781 27.8429
rfemur -12.0453 -2.65165 20.0552
rtibia 23.898
rfoot -14.8905 -4.17305
rtoes 9.64821
lfemur -12.1106 8.31127 -18.7785
ltibia 22.1197
lfoot -12.9068 3.87498
ltoes -1.60465
186
root 0.59295 17.4636 -14.1182 4.44198 -0.284179 -1.58897
lowerback -1.72413 -0.698294 -0.238976
upperback 2.27881 -0.98469 2.00438
thorax 3.34913 -0.524172 2.15156
lowerneck -14.1189 0.590732 -1.72249
upperneck 28.8106 1.33196 -0.0727638
head 11.7418 0.397844 0.456718
rclavicle 2.78299e-015 -1.23246e-014
rhumerus -20.1921 -12.3631 -82.3727
rradius 27.2533
rwrist 27.9953
rhand -18.4674 -27.4316
rfingers 7.12502
rthumb 7.81922 -57.267
lclavicle 2.78299e-015 -1.23246e-014
lhumerus -19.3692 -0.32105 87.5443
lradius 21.5371
lwrist 6.29757
lhand -24.7248 -2.16242
lfingers 7.12502
lthumb 1.77738 27.8099
rfemur -12.0748 -2.64322 20.0617
rtibia 23.9091
rfoot -14.8868 -4.16736
rtoes 9.65844
lfemur -12.141 8.32338 -18.7761
ltibia 22.1348
lfoot -12.903 3.87349
ltoes -1.61661
187
root 0.591999 17.4635 -14.1212 4.45024 -0.295674 -1.59235
lowerback -1.70866 -0.693298 -0.233812
upperback 2.28336 -0.978038 2.00152
thorax 3.34467 -0.520692 2.14617
lowerneck -14.1297 0.592943 -1.71419
upperneck 28.8207 1.33314 -0.0723911
head 11.748 0.399184 0.455704
rclavicle 3.42904e-015 1.19271e-015
rhumerus -20.0943 -12.2362 -82.4345
rradius 27.3397
rwrist 27.8935
rhand -18.4727 -27.4463
rfingers 7.12502
rthumb 7.81408 -57.2819
lclavicle 3.42904e-015 1.19271e-015
lhumerus -19.3051 -0.406482 87.5443
lradius 21.6042
lwrist 6.37572
lhand -24.7196 -2.18309
lfingers 7.12502
lthumb 1.78242 27.7892
rfemur -12.1047 -2.63371 20.0691
rtibia 23.9246
rfoot -14.8823 -4.16102
rtoes 9.68239
lfemur -12.1729 8.33577 -18.7724
ltibia 22.1565
lfoot -12.8995 3.87504
ltoes -1.64148
188
root 0.591128 17.4631 -14.1244 4.45684 -0.305968 -1.59635
lowerback -1.68906 -0.689716 -0.226856
upperback 2.28877 -0.973304 1.99845
thorax 3.33881 -0.518119 2.13952
lowerneck -14.1398 0.596008 -1.70198
upperneck 28.8272 1.33576 -0.0765289
head 11.7527 0.401058 0.452524
rclavicle 7.20594e-015 -5.1684e-015
rhumerus -19.9955 -12.1157 -82.4948
rradius 27.425
rwrist 27.7969
rhand -18.4815 -27.4437
rfingers 7.12502
rthumb 7.80562 -57.2796
lclavicle 7.20594e-015 -5.1684e-015
lhumerus -19.242 -0.490263 87.5408
lradius 21.6744
lwrist 6.45432
lhand -24.7105 -2.18722
lfingers 7.12502
lthumb 1.79119 27.785
rfemur -12.136 -2.62447 20.0766
rtibia 23.9447
rfoot -14.8783 -4.15539
rtoes 9.7021
lfemur -12.208 8.3474 -18.7685
ltibia 22.1859
lfoot -12.8974 3.87821
ltoes -1.67563
189
root 0.590428 17.4626 -14.1277 4.46208 -0.31644 -1.60111
lowerback -1.66723 -0.686682 -0.217768
upperback 2.29486 -0.969364 1.99558
thorax 3.3324 -0.515893 2.13183
lowerneck -14.1421 0.599157 -1.68888
upperneck 28.8262 1.33852 -0.0824816
head 11.7529 0.402954 0.448449
rclavicle -3.47873e-015 -3.97569e-016
rhumerus -19.896 -12.0027 -82.5521
rradius 27.5076
rwrist 27.705
rhand -18.4962 -27.419
rfingers 7.12502
rthumb 7.79139 -57.2555
lclavicle -3.47873e-015 -3.97569e-016
lhumerus -19.1813 -0.566493 87.5346
lradius 21.747
lwrist 6.53169
lhand -24.7015 -2.19948
lfingers 7.12502
lthumb 1.79991 27.7727
rfemur -12.1685 -2.62003 20.0838
rtibia 23.9694
rfoot -14.8758 -4.14435
rtoes 9.71669
lfemur -12.2463 8.35695 -18.7644
ltibia 22.2236
lfoot -12.8976 3.88428
ltoes -1.71312
190
root 0.589831 17.4618 -14.1313 4.4656 -0.327196 -1.60779
lowerback -1.64061 -0.684369 -0.206937
upperback 2.30062 -0.966424 1.99388
thorax 3.32297 -0.514123 2.12439
lowerneck -14.1336 0.602072 -1.67801
upperneck 28.8159 1.3411 -0.0882589
head 11.7472 0.404678 0.444693
rclavicle 6.55989e-015 -1.11319e-014
rhumerus -19.7961 -11.8929 -82.6064
rradius 27.5851
rwrist 27.6168
rhand -18.5189 -27.3832
rfingers 7.12502
rthumb 7.76954 -57.2205
lclavicle 6.55989e-015 -1.11319e-014
lhumerus -19.1263 -0.635813 87.526
lradius 21.8223
lwrist 6.60788
lhand -24.6996 -2.22661
lfingers 7.12502
lthumb 1.80169 27.7455
rfemur -12.2025 -2.61658 20.0927
rtibia 23.9982
rfoot -14.8742 -4.13177
rtoes 9.72319
lfemur -12.2885 8.36484 -18.7582
ltibia 22.2709
lfoot -12.901 3.89241
ltoes -1.74614
191
root 0.589323 17.4608 -14.1352 4.46844 -0.337701 -1.61794
lowerback -1.61181 -0.682126 -0.192494
upperback 2.3082 -0.963733 1.9933
thorax 3.31416 -0.512416 2.11608
lowerneck -14.1224 0.603752 -1.6704
upperneck 28.7993 1.34212 -0.0923036
head 11.7385 0.40564 0.441874
rclavicle 1.2921e-015 -1.07344e-014
rhumerus -19.6893 -11.7881 -82.6589
rradius 27.6548
rwrist 27.5277
rhand -18.5443 -27.352
rfingers 7.12502
rthumb 7.74499 -57.1902
lclavicle 1.2921e-015 -1.07344e-014
lhumerus -19.0694 -0.699337 87.5149
lradius 21.8972
lwrist 6.68194
lhand -24.7024 -2.25735
lfingers 7.12502
lthumb 1.79896 27.7148
rfemur -12.2389 -2.61596 20.1051
rtibia 24.0315
rfoot -14.8755 -4.11593
rtoes 9.73561
lfemur -12.3355 8.3712 -18.7483
ltibia 22.328
lfoot -12.9074 3.90141
ltoes -1.77151
192
root 0.588902 17.4597 -14.1395 4.47058 -0.348701 -1.63384
lowerback -1.57728 -0.680095 -0.173186
upperback 2.31522 -0.961489 1.99556
thorax 3.30152 -0.510831 2.108
lowerneck -14.1026 0.60423 -1.66896
upperneck 28.7747 1.3423 -0.0947227
head 11.7249 0.405863 0.440517
rclavicle -1.42628e-014 1.19271e-014
rhumerus -19.5795 -11.6872 -82.708
rradius 27.7176
rwrist 27.4452
rhand -18.5735 -27.3337
rfingers 7.12502
rthumb 7.71678 -57.1729
lclavicle -1.42628e-014 1.19271e-014
lhumerus -19.0146 -0.753046 87.5024
lradius 21.9715
lwrist 6.7507
lhand -24.7117 -2.30681
lfingers 7.12502
lthumb 1.79005 27.6654
rfemur -12.2787 -2.61554 20.1238
rtibia 24.0695
rfoot -14.8772 -4.10051
rtoes 9.73406
lfemur -12.3882 8.3781 -18.7322
ltibia 22.3954
lfoot -12.9178 3.91108
ltoes -1.79151
193
root 0.588514 17.4583 -14.1442 4.47219 -0.358836 -1.65197
lowerback -1.53825 -0.678791 -0.15217
upperback 2.32416 -0.960262 1.99843
thorax 3.28836 -0.509729 2.09959
lowerneck -14.0828 0.603636 -1.67291
upperneck 28.7449 1.341 -0.0927098
head 11.7091 0.405445 0.441495
rclavicle 1.07344e-014 -1.66979e-014
rhumerus -19.4609 -11.5899 -82.7572
rradius 27.7739
rwrist 27.3668
rhand -18.6007 -27.3282
rfingers 7.12502
rthumb 7.69055 -57.1684
lclavicle 1.07344e-014 -1.66979e-014
lhumerus -18.9569 -0.80147 87.4872
lradius 22.0447
lwrist 6.81533
lhand -24.7277 -2.36375
lfingers 7.12502
lthumb 1.77459 27.6086
rfemur -12.323 -2.61612 20.1452
rtibia 24.1135
rfoot -14.8789 -4.08524
rtoes 9.73692
lfemur -12.4466 8.38609 -18.7135
ltibia 22.4724
lfoot -12.9326 3.91884
ltoes -1.80472
194
root 0.588121 17.4568 -14.1495 4.47352 -0.369479 -1.67217
lowerback -1.49231 -0.678659 -0.131213
upperback 2.33284 -0.960548 2.00277
thorax 3.27111 -0.509386 2.09274
lowerneck -14.0626 0.602822 -1.67955
upperneck 28.7124 1.33978 -0.0898599
head 11.6922 0.404901 0.443242
rclavicle 1.8487e-014 -1.74931e-014
rhumerus -19.3398 -11.4925 -82.8053
rradius 27.827
rwrist 27.2919
rhand -18.6183 -27.3403
rfingers 7.12502
rthumb 7.67362 -57.1811
lclavicle 1.8487e-014 -1.74931e-014
lhumerus -18.8983 -0.836431 87.4684
lradius 22.1145
lwrist 6.86884
lhand -24.7432 -2.43046
lfingers 7.12502
lthumb 1.75962 27.542
rfemur -12.3732 -2.61335 20.1694
rtibia 24.1648
rfoot -14.8817 -4.07393
rtoes 9.73559
lfemur -12.5116 8.39582 -18.6926
ltibia 22.5589
lfoot -12.9497 3.92677
ltoes -1.81875
